<?xml version="1.0" encoding="UTF-8"?><svg id="Calque_1" xmlns="http://www.w3.org/2000/svg" viewBox="0 0 100 100"><defs><style>.cls-1{fill:#1b263b;stroke-width:0px;}</style></defs><rect class="cls-1" x="35.17" y="-.24" width="33.66" height="33.66" rx="1.12" ry="1.12"/><path class="cls-1" d="M68.83,99.71v-31.42c0-.62-.5-1.12-1.12-1.12h-15.71c-4.65,0-8.85,1.88-11.89,4.94-3.05,3.04-4.94,7.25-4.94,11.89v15.71c0,.62.5,1.12,1.12,1.12h31.42c.62,0,1.12-.5,1.12-1.12Z"/><rect class="cls-1" x="66.18" y="33.99" width="33.66" height="33.66" rx="1.12" ry="1.12"/><path class="cls-1" d="M33.65,35.11c0-.62-.5-1.12-1.12-1.12H1.11c-.62,0-1.12.5-1.12,1.12v31.42c0,.62.5,1.12,1.12,1.12h15.71c4.65,0,8.85-1.89,11.89-4.94,3.05-3.04,4.94-7.25,4.94-11.89v-15.71Z"/></svg>